<svg style="display: none;" version="1.1" id="Presets" baseProfile="tiny" xmlns="http://www.w3.org/2000/svg" xmlns:xlink="http://www.w3.org/1999/xlink">
    <g id="Acronimo">
        <path id="U" d="M65.7,0H47L34.6,26.5c-1.9,4-2,7.5,1.1,11.3c3.5,4.2,10.8,5.9,18.2,5.9h13.6c6.8,0,11.3-1.3,16.6-5.6 c3.3-2.7,4.8-4.7,6.6-8.5L104.5,0H85.3L75.1,21.4c-2.8,6.7-4.3,8.2-13.2,8.2c-5.7,0-7.8-4.6-6.1-8.2L65.7,0z" />
        <path id="N" d="M155.2,0.2h17.9l-13.7,29.6c-2,4.4-4.4,6.9-8.5,9.8c-2.5,1.8-9.6,3.9-15.6,2.6l-11.4-22.2l-4.5,9.7 c-2,4.3-4.4,6.9-8.5,9.8c-2.5,1.8-9.6,3.9-15.6,2.6l19.9-42.1h17.9l12.3,20.6L155.2,0.2z" />
        <path id="I" d="M162.6,42.1L182.4,0h17.9l-13.8,29.6c-2,4.4-4.4,6.9-8.4,9.8C175.6,41.3,168.7,43.4,162.6,42.1" />
        <path id="P" d="M225.8,8.1l-5.6,11.7h13.9c1.2,0,2-0.2,3-0.8c1-0.6,1.5-1.1,2-2.1l1.8-3.8c0.6-1.1,0.3-2.1-0.3-3.1 c-0.7-1.3-1.9-1.8-3.3-1.8H225.8z M210.5,0h47.1c2,0,3.3,0.9,4.6,2.5c2.1,2.6,1.4,5.7,0,8.7l-4.8,10.2c-1.1,2.3-1.7,3.8-3.6,5.4 c-2.6,2.1-4.8,2.8-8.1,2.8h-30.3c-1.7,4.3-3.6,6.6-7.4,9.2c-3.4,2.3-6,3.3-10.1,3.3h-7L210.5,0z" />
    </g>
    <path id="Linha" d="M0,51.5c0,0,4.4-0.1,12-0.3c7.7-0.1,18.6-0.4,31.7-0.5c13.1-0.1,28.4-0.4,44.8-0.4 c16.4-0.1,33.9-0.1,51.4-0.2c17.5,0.1,35,0.1,51.4,0.2c16.4,0,31.7,0.3,44.8,0.4c13.1,0.1,24.1,0.4,31.7,0.5c7.7,0.2,12,0.3,12,0.3 s-4.4,0.1-12,0.3c-7.7,0.1-18.6,0.4-31.7,0.5c-13.1,0.1-28.4,0.4-44.8,0.4c-16.4,0.1-33.9,0.1-51.4,0.2c-17.5-0.1-35-0.1-51.4-0.2 c-16.4-0.1-31.7-0.3-44.8-0.4c-13.1-0.1-24.1-0.4-31.7-0.5C4.4,51.6,0,51.5,0,51.5" />
    <g id="Descritivo">
        <path fill="#FFFFFF" d="M42.1,59.4h-2.8l-1.8,8.1c-0.3,1.5-1.3,2.4-3.2,2.4c-1.3,0-2.2-0.8-1.8-2.5l1.8-8h-2.8l-1.8,8.1 c-0.3,1.2-0.2,2.2,0.3,3c0.9,1.2,2.7,1.5,3.9,1.5c3.3,0,5.8-1.4,6.5-4.6L42.1,59.4z" />
        <polygon fill="#FFFFFF" points="50.5,67.9 50.5,67.9 47.2,59.4 44.3,59.4 41.4,71.7 44,71.7 46,62.9 46.1,62.9 49.5,71.7 52.2,71.7 55,59.4 52.5,59.4 " />
        <polygon fill="#FFFFFF" points="59.8,59.4 57.1,59.4 54.3,71.7 57,71.7 " />
        <polygon fill="#FFFFFF" points="64.7,68.7 64.6,68.7 63.9,59.4 61,59.4 62.6,71.7 65.3,71.7 72.6,59.4 69.7,59.4 " />
        <polygon fill="#FFFFFF" points="83.6,59.4 73.9,59.4 71.1,71.7 81.2,71.7 81.7,69.5 74.3,69.5 75.1,66.3 81.5,66.3 82,64.2 75.6,64.2 76.1,61.6 83.2,61.6 " />
        <path fill="#FFFFFF" d="M83,71.7h2.7l1.1-4.8h2.9c2,0,2,0.6,1.6,2.3C91,70.5,91,71.1,91,71.7h3l0.1-0.3c-0.5-0.2-0.4-0.6,0-2.4 c0.5-2.3,0-2.7-1-3.1c1.4-0.4,2.4-1.6,2.7-2.9c0.3-1.1,0.2-3.5-3.4-3.5h-6.7L83,71.7z M87.3,64.8l0.8-3.3h3.5c1.6,0,1.7,1,1.6,1.6 c-0.3,1.2-1.1,1.7-2.5,1.7H87.3z" />
        <path fill="#FFFFFF" d="M96.1,67.9c-0.3,1.5-0.1,4.1,4.7,4.1c1.1,0,5.3-0.3,6.1-4c0.5-2.2-1-2.9-2.7-3.3l-3.1-0.8 c-0.5-0.1-1.3-0.3-1.1-1.3c0.3-1.1,1.6-1.5,2.6-1.5c2.4,0,2.3,1.3,2.3,1.8h2.6c0.3-1.5-0.2-4-4.2-4c-4.3,0-5.7,2.4-6,3.8 c-0.6,2.7,1.3,3.2,3.4,3.6l1.4,0.3c1.3,0.3,2.3,0.6,2,1.5c-0.3,1.3-1.8,1.6-3.1,1.6c-2.4,0-2.5-1.3-2.4-2H96.1z" />
        <polygon fill="#FFFFFF" points="113.2,59.4 110.4,59.4 107.6,71.7 110.4,71.7 " />
        <path fill="#FFFFFF" d="M112.5,71.7h5.7c4.4,0,6.4-3.8,7-6.4c0.5-2.3,0.4-5.8-4.1-5.8h-5.8L112.5,71.7z M117.6,61.5h2.7 c1.2,0,3,0.3,2.1,3.9c-0.4,2-1.7,4.1-3.9,4.1h-2.7L117.6,61.5z" />
        <path fill="#FFFFFF" d="M128.8,69.1h4.9l0.3,2.5h3l-1.8-12.3h-3.2l-7.5,12.3h2.9L128.8,69.1z M132.9,62.2L132.9,62.2l0.6,4.8h-3.4 L132.9,62.2z" />
        <path fill="#FFFFFF" d="M138.3,71.7h5.7c4.4,0,6.4-3.8,7-6.4c0.5-2.3,0.4-5.8-4-5.8h-5.9L138.3,71.7z M143.4,61.5h2.7 c1.2,0,3,0.3,2.2,3.9c-0.5,2-1.7,4.1-3.9,4.1h-2.7L143.4,61.5z" />
        <polygon fill="#FFFFFF" points="163.8,59.4 154.1,59.4 151.3,71.7 161.3,71.7 161.8,69.5 154.5,69.5 155.2,66.3 161.7,66.3 162.2,64.2 155.7,64.2 156.3,61.6 163.3,61.6 " />
        <path fill="#FFFFFF" d="M171.6,67.2h3.2c3.6,0,4.8-2.8,5.1-3.9c0.5-2.4-0.7-3.9-3.2-3.9h-6l-2.8,12.3h2.8L171.6,67.2z M172.1,65.1 l0.8-3.6h2.2c1.7,0,2.3,0.5,2,1.7c-0.1,0.6-0.4,1.9-2.5,1.9H172.1z" />
        <path fill="#FFFFFF" d="M181.7,69.1h4.9l0.3,2.5h3L188,59.4h-3.2l-7.5,12.3h2.9L181.7,69.1z M185.7,62.2L185.7,62.2l0.6,4.8h-3.4 L185.7,62.2z" />
        <path fill="#FFFFFF" d="M204.6,59.4h-2.8l-1.9,8.1c-0.3,1.5-1.3,2.4-3.2,2.4c-1.3,0-2.2-0.8-1.8-2.5l1.8-8H194l-1.9,8.1 c-0.2,1.2-0.2,2.2,0.4,3c0.9,1.2,2.6,1.5,3.9,1.5c3.3,0,5.8-1.4,6.5-4.6L204.6,59.4z" />
        <polygon fill="#FFFFFF" points="209.7,59.4 207,59.4 204.1,71.7 213.5,71.7 214,69.5 207.4,69.5 " />
        <polygon fill="#FFFFFF" points="220.4,59.4 217.6,59.4 214.8,71.7 217.5,71.7 " />
        <path fill="#FFFFFF" d="M219.9,67.9c-0.4,1.5-0.1,4.1,4.7,4.1c1.1,0,5.3-0.3,6.1-4c0.5-2.2-1-2.9-2.7-3.3l-3-0.8 c-0.5-0.1-1.3-0.3-1.1-1.3c0.3-1.1,1.6-1.5,2.7-1.5c2.4,0,2.3,1.3,2.3,1.8h2.7c0.3-1.5-0.2-4-4.3-4c-4.3,0-5.6,2.4-6,3.8 c-0.6,2.7,1.4,3.2,3.4,3.6l1.3,0.3c1.3,0.3,2.3,0.6,2.1,1.5c-0.3,1.3-1.8,1.6-3.1,1.6c-2.4,0-2.5-1.3-2.4-2H219.9z" />
        <polygon fill="#FFFFFF" points="239.6,61.6 243.6,61.6 244.1,59.4 233.3,59.4 232.8,61.6 236.8,61.6 234.5,71.7 237.3,71.7 " />
        <path fill="#FFFFFF" d="M250.8,59h-3.2l-7.5,12h2.9l1.5-2h4.9l0.3,2h3L250.8,59z M245.7,67l2.8-5h0l0.5,5H245.7z" />
    </g>
    <g id="Tag">
        <polygon points="38.6,9.3 36.9,8.4 40.9,0 58,0 53.7,9.3 51.9,8.4 54.9,1.9 42.1,1.9" />
        <polygon points="8.9,9.3 7.1,8.4 11,0 27.8,0 23.5,9.3 21.7,8.4 24.7,1.9 12.3,1.9" />
        <path d="M27.7,36H17.1c-4,0-11.3-0.6-15-5C0.7,29.3,0,27.6,0,25.7h1.9c0,1.4,0.6,2.7,1.7,4.1c2.3,2.7,7.2,4.3,13.5,4.3h10.6c5.4,0,8.6-1.1,12.3-4.1c1.9-1.6,3-2.9,4.1-4.7l1.7,1c-1.1,2-2.4,3.5-4.5,5.2C37.1,34.8,33.5,36,27.7,36z" />
    </g>
    <g id="Capelo">
        <path id="Topo" fill="transparent" stroke="rgb(255,255,255)" d=" M 52 8.765 L 26.001 0 L 0 8.766 L 26.182 17.327 L 52 8.765 Z " />
        <path id="Carneira" fill="transparent" stroke="rgb(255,255,255)" d=" M 13.919 15.27 L 13.283 18.053 C 13.146 18.281 13.078 18.512 13.078 18.746 C 13.078 20.932 22.686 26.393 25.659 26.393 C 28.723 26.393 39.283 20.875 39.283 18.746 C 39.283 18.584 39.251 18.442 39.2 18.227 Q 39.17 18.103 38.458 15.174 L 26.184 19.149 L 13.919 15.27 Z " />
        <path id="Cordao" fill="rgb(255,255,0)" d=" M 50.343 24.698 L 50.343 9.983 L 49.125 10.393 L 49.125 24.489 L 47.193 27.979 L 49.668 32 L 52 27.959 L 50.343 24.698 Z M 49.663 29.566 L 48.729 27.78 L 49.622 25.903 L 50.584 27.798 L 49.663 29.566 Z " />
    </g>
    <polygon id="Play" points="40,25 60,50 40,75" fill="transparent" />
    <path id="Facebook" d="M353.701,0H55.087C24.665,0,0.002,24.662,0.002,55.085v298.616c0,30.423,24.662,55.085,55.085,55.085h147.275l0.251-146.078h-37.951c-4.932,0-8.935-3.988-8.954-8.92l-0.182-47.087c-0.019-4.959,3.996-8.989,8.955-8.989h37.882v-45.498c0-52.8,32.247-81.55,79.348-81.55h38.65c4.945,0,8.955,4.009,8.955,8.955v39.704c0,4.944-4.007,8.952-8.95,8.955l-23.719,0.011c-25.615,0-30.575,12.172-30.575,30.035v39.389h56.285c5.363,0,9.524,4.683,8.892,10.009l-5.581,47.087c-0.534,4.506-4.355,7.901-8.892,7.901h-50.453l-0.251,146.078h87.631c30.422,0,55.084-24.662,55.084-55.084V55.085C408.786,24.662,384.124,0,353.701,0z"/>
    <path id="Twitter" d="M403.632,74.18c-9.113,4.041-18.573,7.229-28.28,9.537c10.696-10.164,18.738-22.877,23.275-37.067l0,0c1.295-4.051-3.105-7.554-6.763-5.385l0,0c-13.504,8.01-28.05,14.019-43.235,17.862c-0.881,0.223-1.79,0.336-2.702,0.336c-2.766,0-5.455-1.027-7.57-2.891c-16.156-14.239-36.935-22.081-58.508-22.081c-9.335,0-18.76,1.455-28.014,4.325c-28.672,8.893-50.795,32.544-57.736,61.724c-2.604,10.945-3.309,21.9-2.097,32.56c0.139,1.225-0.44,2.08-0.797,2.481c-0.627,0.703-1.516,1.106-2.439,1.106c-0.103,0-0.209-0.005-0.314-0.015c-62.762-5.831-119.358-36.068-159.363-85.14l0,0c-2.04-2.503-5.952-2.196-7.578,0.593l0,0C13.677,65.565,9.537,80.937,9.537,96.579c0,23.972,9.631,46.563,26.36,63.032c-7.035-1.668-13.844-4.295-20.169-7.808l0,0c-3.06-1.7-6.825,0.485-6.868,3.985l0,0c-0.438,35.612,20.412,67.3,51.646,81.569c-0.629,0.015-1.258,0.022-1.888,0.022c-4.951,0-9.964-0.478-14.898-1.421l0,0c-3.446-0.658-6.341,2.611-5.271,5.952l0,0c10.138,31.651,37.39,54.981,70.002,60.278c-27.066,18.169-58.585,27.753-91.39,27.753l-10.227-0.006c-3.151,0-5.816,2.054-6.619,5.106c-0.791,3.006,0.666,6.177,3.353,7.74c36.966,21.513,79.131,32.883,121.955,32.883c37.485,0,72.549-7.439,104.219-22.109c29.033-13.449,54.689-32.674,76.255-57.141c20.09-22.792,35.8-49.103,46.692-78.201c10.383-27.737,15.871-57.333,15.871-85.589v-1.346c-0.001-4.537,2.051-8.806,5.631-11.712c13.585-11.03,25.415-24.014,35.16-38.591l0,0C411.924,77.126,407.866,72.302,403.632,74.18L403.632,74.18z"/>
    <path id="Youtube" d="M365.257,67.393H95.744C42.866,67.393,0,110.259,0,163.137v134.728c0,52.878,42.866,95.744,95.744,95.744h269.513c52.878,0,95.744-42.866,95.744-95.744V163.137C461.001,110.259,418.135,67.393,365.257,67.393z M300.506,237.056l-126.06,60.123c-3.359,1.602-7.239-0.847-7.239-4.568V168.607c0-3.774,3.982-6.22,7.348-4.514l126.06,63.881C304.363,229.873,304.298,235.248,300.506,237.056z"/>
    <path id="Linkedin" d="M347.445,0H34.555C15.471,0,0,15.471,0,34.555v312.889C0,366.529,15.471,382,34.555,382h312.889C366.529,382,382,366.529,382,347.444V34.555C382,15.471,366.529,0,347.445,0z M118.207,329.844c0,5.554-4.502,10.056-10.056,10.056H65.345c-5.554,0-10.056-4.502-10.056-10.056V150.403c0-5.554,4.502-10.056,10.056-10.056h42.806c5.554,0,10.056,4.502,10.056,10.056V329.844z M86.748,123.432c-22.459,0-40.666-18.207-40.666-40.666S64.289,42.1,86.748,42.1s40.666,18.207,40.666,40.666S109.208,123.432,86.748,123.432z M341.91,330.654c0,5.106-4.14,9.246-9.246,9.246H286.73c-5.106,0-9.246-4.14-9.246-9.246v-84.168c0-12.556,3.683-55.021-32.813-55.021c-28.309,0-34.051,29.066-35.204,42.11v97.079c0,5.106-4.139,9.246-9.246,9.246h-44.426c-5.106,0-9.246-4.14-9.246-9.246V149.593c0-5.106,4.14-9.246,9.246-9.246h44.426c5.106,0,9.246,4.14,9.246,9.246v15.655c10.497-15.753,26.097-27.912,59.312-27.912c73.552,0,73.131,68.716,73.131,106.472L341.91,330.654L341.91,330.654z"/>
    <g id="Math">
		<path d="M7.309,74.912h5.946l29.487,41.961c1.384,1.969,3.629,3.105,5.98,3.105c0.463,0,0.933-0.045,1.398-0.137
			c2.831-0.553,5.072-2.716,5.722-5.527L73.411,38.37h63.01c4.036,0,7.31-3.271,7.31-7.309c0-4.036-3.272-7.309-7.31-7.309h-68.82
			c-3.401,0-6.354,2.349-7.121,5.662l-15.189,65.66L23.032,63.4c-1.367-1.945-3.598-3.105-5.979-3.105H7.309
			C3.272,60.295,0,63.566,0,67.604C0.001,71.64,3.273,74.912,7.309,74.912z"/>
		<path d="M81.727,105.979c0,3.589,2.926,6.229,6.699,6.229c2.549,0,4.531-1.604,6.229-3.681l10.193-13.401l10.192,13.401
			c1.888,2.36,3.868,3.681,6.698,3.681c3.59,0,6.607-2.548,6.607-6.605c0-1.887-0.756-3.586-2.361-5.476l-12.646-14.532
			l12.271-14.347c1.134-1.416,1.98-2.926,1.98-4.909c0-3.589-2.926-6.231-6.701-6.231c-2.549,0-4.529,1.605-6.229,3.684
			l-9.533,12.455l-9.342-12.455c-1.89-2.361-3.869-3.684-6.699-3.684c-3.588,0-6.606,2.551-6.606,6.609
			c0,1.885,0.756,3.586,2.358,5.471l11.797,13.592l-12.93,15.289C82.482,102.486,81.727,103.996,81.727,105.979z"/>
	</g>
    <g id="Brain">
        <path d="M55.299,22.682c-0.774-1.203-1.206-3.811-1.11-5.398c0.225-3.707-1.745-7.388-4.789-8.95
            c-0.587-0.302-1.115-0.454-1.581-0.588c-0.801-0.231-1.132-0.327-1.435-0.956c-1.596-3.317-3.362-3.781-6.711-3.564
            c-0.314,0.059-0.732-0.46-1.163-0.92c-0.741-0.793-1.731-1.852-3.301-2.032l-0.505-0.05c-2.061,0-3.915,0.746-4.991,1.847
            c-0.533-0.576-1.21-1.08-1.889-1.44c-1.322-0.701-2.56-0.822-3.447-0.336c-1.558,0.308-2.556,1.296-3.294,2.026
            c-0.583,0.577-0.948,0.944-1.281,0.904c-3.351-0.215-5.114,0.249-6.711,3.564c-0.302,0.629-0.633,0.725-1.434,0.956
            c-0.465,0.134-0.993,0.286-1.581,0.588c-3.044,1.563-5.013,5.243-4.789,8.95c0.096,1.588-0.336,4.195-1.11,5.398
            c-1.907,2.968-1.907,7.114,0,10.082c0.295,0.458,0.727,0.991,1.227,1.609c0.892,1.102,2.386,2.945,2.335,3.789
            c-0.227,3.736,2.053,8.041,5.082,9.596c0.545,0.28,0.637,0.563,0.843,1.42c0.114,0.474,0.256,1.063,0.562,1.697
            c0.823,1.711,2.114,2.202,3.056,2.561c0.936,0.355,1.323,0.503,1.465,1.529c0.461,3.34,2.563,4.513,4.49,4.513
            c0.11,0,0.219-0.004,0.328-0.011c2.362-0.163,4.837-1.971,6.173-4.763c1.336,2.793,3.81,4.601,6.173,4.763
            c0.108,0.007,0.218,0.011,0.328,0.011c1.927,0,4.029-1.174,4.49-4.513c0.142-1.026,0.529-1.174,1.465-1.529
            c0.942-0.359,2.233-0.85,3.057-2.561c0.305-0.634,0.447-1.224,0.561-1.697c0.207-0.856,0.298-1.14,0.843-1.42
            c3.028-1.555,5.308-5.859,5.082-9.596c-0.051-0.844,1.443-2.688,2.335-3.789c0.5-0.618,0.932-1.151,1.227-1.609
            C57.206,29.796,57.206,25.649,55.299,22.682z M23.429,57.472c-1.477,0.076-2.438-0.886-2.699-2.78
            c-0.304-2.2-1.709-2.735-2.735-3.125c-0.831-0.316-1.488-0.566-1.965-1.559c-0.213-0.441-0.318-0.878-0.42-1.3
            c-0.001-0.005-0.003-0.01-0.004-0.015c0.077-0.142,0.133-0.297,0.133-0.47c0-2.757,2.243-5,5-5c0.552,0,1-0.447,1-1s-0.448-1-1-1
            c-3.145,0-5.81,2.085-6.691,4.944c-0.1-0.064-0.197-0.129-0.313-0.188c-2.307-1.184-4.175-4.78-3.999-7.695
            c0.098-1.62-1.429-3.506-2.777-5.17c-0.444-0.548-0.863-1.065-1.098-1.432c-1.499-2.331-1.499-5.587,0-7.918
            c1.043-1.622,1.543-4.63,1.423-6.602c-0.175-2.893,1.383-5.857,3.706-7.05c0.415-0.213,0.826-0.331,1.222-0.446
            c0.42-0.121,0.864-0.256,1.29-0.491c0.078,0.019,0.153,0.048,0.236,0.048c2.206,0,4,1.794,4,4c0,0.553,0.448,1,1,1s1-0.447,1-1
            c0-2.86-2.013-5.256-4.696-5.853c0.895-1.749,1.653-2.198,3.398-2.198c0.364,0,0.772,0.019,1.233,0.049
            c1.243,0.077,2.079-0.748,2.817-1.479c0.701-0.693,1.362-1.349,2.395-1.506l0.329-0.061l0.156-0.144
            c0.192-0.083,0.73-0.052,1.517,0.365c1.148,0.609,1.852,1.528,1.852,1.826v8.069c-3.94,0.495-7,3.859-7,7.931c0,3.309-2.691,6-6,6
            c-0.552,0-1,0.447-1,1s0.448,1,1,1c4.411,0,8-3.589,8-8c0-2.967,2.167-5.431,5-5.91v35.91
            C28.739,54.655,25.599,57.322,23.429,57.472z M53.616,31.682c-0.235,0.366-0.654,0.884-1.098,1.432
            c-0.404,0.499-0.821,1.019-1.209,1.545c-1.072-3.156-4.057-5.436-7.571-5.436c-3.309,0-6-2.691-6-6c0-0.553-0.448-1-1-1
            s-1,0.447-1,1c0,4.411,3.589,8,8,8c3.309,0,6,2.691,6,6c0,0.117,0.03,0.226,0.067,0.331c-0.05,0.247-0.079,0.492-0.065,0.73
            c0.176,2.915-1.692,6.512-3.999,7.695c-0.115,0.059-0.212,0.125-0.313,0.188c-0.88-2.859-3.546-4.944-6.691-4.944
            c-0.552,0-1,0.447-1,1s0.448,1,1,1c2.757,0,5,2.243,5,5c0,0.173,0.056,0.328,0.133,0.47c-0.001,0.005-0.003,0.01-0.004,0.015
            c-0.102,0.422-0.207,0.858-0.419,1.3c-0.478,0.992-1.134,1.242-1.965,1.559c-1.026,0.39-2.432,0.925-2.735,3.125
            c-0.262,1.895-1.233,2.854-2.699,2.78c-2.17-0.149-5.31-2.816-5.31-7.249v-46c0-0.754,1.458-1.849,3.531-1.985l0.469,0.009
            c0.913,0,1.482,0.538,2.311,1.425c0.714,0.763,1.535,1.607,2.753,1.55c2.684-0.17,3.56,0.041,4.651,2.19
            c-2.132,0.571-3.715,2.502-3.715,4.812c0,0.553,0.448,1,1,1s1-0.447,1-1c0-1.654,1.346-3,3-3c0.084,0,0.159-0.028,0.236-0.048
            c0.426,0.235,0.87,0.37,1.29,0.491c0.396,0.115,0.807,0.233,1.222,0.446c2.322,1.192,3.881,4.157,3.706,7.05
            c-0.12,1.972,0.38,4.979,1.423,6.602C55.115,26.095,55.115,29.35,53.616,31.682z"/>
        <path d="M26.276,27.859c-0.391-0.391-1.023-0.391-1.414,0c-1.369,1.368-2.123,3.188-2.123,5.121c0,1.619,0.535,3.153,1.51,4.414
            c-0.975,1.261-1.51,2.796-1.51,4.414c0,1.934,0.754,3.753,2.123,5.121c0.195,0.195,0.451,0.293,0.707,0.293
            s0.512-0.098,0.707-0.293c0.391-0.391,0.391-1.023,0-1.414c-0.991-0.991-1.537-2.308-1.537-3.707s0.546-2.716,1.537-3.707
            c0.391-0.391,0.391-1.023,0-1.414c-0.991-0.991-1.537-2.308-1.537-3.707c0-1.399,0.546-2.716,1.537-3.707
            C26.666,28.883,26.666,28.25,26.276,27.859z"/>
        <path d="M34.55,31.202c-0.391,0.391-0.391,1.023,0,1.414c1.858,1.859,1.858,4.884,0,6.743c-1.279,1.279-1.984,2.979-1.984,4.785
            s0.705,3.506,1.984,4.785c0.195,0.195,0.451,0.293,0.707,0.293s0.512-0.098,0.707-0.293c0.391-0.391,0.391-1.023,0-1.414
            c-0.901-0.901-1.398-2.099-1.398-3.371s0.497-2.47,1.398-3.371c2.638-2.639,2.638-6.933,0-9.571
            C35.573,30.811,34.94,30.811,34.55,31.202z"/>
        <path d="M47.554,21.692c-2.583,0.453-5.066-1.282-5.521-3.871c-0.313-1.781-1.3-3.334-2.779-4.371
            c-1.479-1.037-3.276-1.436-5.057-1.124c-0.544,0.096-0.908,0.614-0.812,1.158s0.613,0.902,1.158,0.813
            c1.258-0.226,2.521,0.061,3.563,0.79c1.042,0.731,1.737,1.825,1.958,3.08c0.577,3.281,3.44,5.599,6.664,5.599
            c0.387,0,0.779-0.034,1.173-0.103c0.544-0.096,0.908-0.614,0.812-1.158S48.102,21.598,47.554,21.692z"/>
        <path d="M13.609,22.796c1.645,0,3.195-1.012,3.797-2.643c0.191-0.519-0.073-1.094-0.591-1.285c-0.517-0.19-1.094,0.074-1.285,0.592
            c-0.391,1.058-1.569,1.6-2.624,1.209c-2.09-0.768-4.42,0.303-5.192,2.393c-0.191,0.519,0.074,1.094,0.592,1.285
            c0.114,0.042,0.231,0.062,0.346,0.062c0.407,0,0.789-0.25,0.938-0.653c0.39-1.057,1.564-1.602,2.624-1.209
            C12.674,22.715,13.145,22.796,13.609,22.796z"/>
        <path d="M16.794,38.1c-1.056-0.389-1.599-1.566-1.21-2.622c0,0,0-0.001,0-0.001c0.772-2.091-0.302-4.42-2.393-5.193
            c-0.516-0.189-1.094,0.074-1.285,0.592c-0.191,0.519,0.073,1.094,0.591,1.285c1.057,0.39,1.6,1.567,1.21,2.623
            c0,0.001,0,0.002,0,0.002c-0.77,2.089,0.303,4.418,2.393,5.191c0.114,0.042,0.231,0.062,0.347,0.062
            c0.407,0,0.789-0.25,0.938-0.653C17.577,38.867,17.312,38.293,16.794,38.1z"/>
    </g>
    <g id="DNA">
        <path style="fill:#303C42;" d="M466.208,131.125c-4.167-4.167-10.917-4.167-15.083,0c-1.087,1.087-2.279,1.905-3.414,2.868
            L335.337,21.628c0.965-1.137,1.781-2.331,2.871-3.419c4.167-4.167,4.167-10.917,0-15.083s-10.917-4.167-15.083,0
            c-25,25-24.729,58.375-24.5,85.188L298.667,96c0,7.573,2.25,18.719,5.354,34.146c5.099,25.233,12.017,59.762,11.082,92.053
            l-67.872-67.866c8.186-0.237,16.816-0.105,26.186,0.625c5.375,0.531,11-3.906,11.458-9.792c0.479-5.875-3.917-11.01-9.792-11.479
            c-51.438-4.104-88.083,5.552-111.958,29.438c-45.854,45.854-28.875,130-18.729,180.281c2.083,10.342,3.9,19.449,4.598,25.566
            l-48.522-48.522c1.259,0.141,2.215,0.151,3.695,0.372c5.708,0.896,11.271-3.094,12.146-8.948c0.896-5.823-3.125-11.26-8.938-12.135
            c-4.563-0.698-8.396-1.073-11.375-1.073l-7.688-0.042c-26.875-0.177-60.167-0.51-85.188,24.5c-4.167,4.167-4.167,10.917,0,15.083
            c2.083,2.083,4.813,3.125,7.542,3.125s5.458-1.042,7.542-3.125c1.09-1.089,2.284-1.906,3.422-2.87l112.366,112.366
            c-0.965,1.137-1.781,2.332-2.871,3.421c-4.167,4.167-4.167,10.917,0,15.083c2.083,2.083,4.813,3.125,7.542,3.125
            s5.458-1.042,7.542-3.125c25-25,24.729-58.375,24.5-85.188l-0.042-7.688c0-7.573-2.25-18.719-5.354-34.146
            c-0.469-2.322-0.961-4.775-1.454-7.246c16.245,2.542,34.027,4.538,51.892,4.538c33.542,0,67.167-6.979,90.458-30.271
            c35.622-35.622,33.299-94.305,25.743-142.316c2.345,0.469,5.004,0.964,7.215,1.41c15.438,3.115,26.583,5.365,34.167,5.365
            l7.688,0.042c2.583,0.021,5.208,0.042,7.896,0.042c25.25,0,54.688-1.938,77.292-24.542
            C470.375,142.042,470.375,135.292,466.208,131.125z M428.37,144.819c-9.128,2.987-18.939,4.102-28.969,4.447l-79.322-79.322
            c0.348-10.013,1.461-19.828,4.444-28.964L428.37,144.819z M282.624,297.698c-9.712,6.967-21.063,11.566-33.495,14.169
            l-91.837-91.846c2.618-12.434,7.029-23.928,14.023-33.624L282.624,297.698z M40.995,324.536c9.132-2.973,18.941-4.081,28.962-4.434
            l79.296,79.296c-0.348,10.008-1.46,19.822-4.443,28.953L40.995,324.536z M159.668,309.599c-3.376-19.68-6.046-41.534-5.438-62.471
            l67.818,67.824C200.716,315.579,178.816,312.9,159.668,309.599z M298.023,282.93L186.379,171.296
            c9.122-6.6,20.379-11.178,33.685-13.961l91.982,91.971C309.428,261.741,305.017,273.233,298.023,282.93z M327.993,141.389
            c-1.04-5.398-2.081-10.626-3.056-15.462c-2.082-10.336-3.897-19.438-4.596-25.555l48.62,48.62
            c-6.12-0.699-15.219-2.514-25.565-4.596C338.673,143.439,333.275,142.408,327.993,141.389z"/>
        <path d="M466.208,131.125c-4.167-4.167-10.917-4.167-15.083,0c-1.087,1.087-2.279,1.905-3.414,2.868
            L335.337,21.628c0.965-1.137,1.781-2.331,2.871-3.419c4.167-4.167,4.167-10.917,0-15.083s-10.917-4.167-15.083,0
            c-25,25-24.729,58.375-24.5,85.188L298.667,96c0,7.573,2.25,18.719,5.354,34.146c5.099,25.233,12.017,59.762,11.082,92.053
            l-67.872-67.866c8.186-0.237,16.816-0.105,26.186,0.625c5.375,0.531,11-3.906,11.458-9.792c0.479-5.875-3.917-11.01-9.792-11.479
            c-51.438-4.104-88.083,5.552-111.958,29.438c-45.854,45.854-28.875,130-18.729,180.281c2.083,10.342,3.9,19.449,4.598,25.566
            l-48.522-48.522c1.259,0.141,2.215,0.151,3.695,0.372c5.708,0.896,11.271-3.094,12.146-8.948c0.896-5.823-3.125-11.26-8.938-12.135
            c-4.563-0.698-8.396-1.073-11.375-1.073l-7.688-0.042c-26.875-0.177-60.167-0.51-85.188,24.5c-4.167,4.167-4.167,10.917,0,15.083
            c2.083,2.083,4.813,3.125,7.542,3.125s5.458-1.042,7.542-3.125c1.09-1.089,2.284-1.906,3.422-2.87l112.366,112.366
            c-0.965,1.137-1.781,2.332-2.871,3.421c-4.167,4.167-4.167,10.917,0,15.083c2.083,2.083,4.813,3.125,7.542,3.125
            s5.458-1.042,7.542-3.125c25-25,24.729-58.375,24.5-85.188l-0.042-7.688c0-7.573-2.25-18.719-5.354-34.146
            c-0.469-2.322-0.961-4.775-1.454-7.246c16.245,2.542,34.027,4.538,51.892,4.538c33.542,0,67.167-6.979,90.458-30.271
            c35.622-35.622,33.299-94.305,25.743-142.316c2.345,0.469,5.004,0.964,7.215,1.41c15.438,3.115,26.583,5.365,34.167,5.365
            l7.688,0.042c2.583,0.021,5.208,0.042,7.896,0.042c25.25,0,54.688-1.938,77.292-24.542
            C470.375,142.042,470.375,135.292,466.208,131.125z M428.37,144.819c-9.128,2.987-18.939,4.102-28.969,4.447l-79.322-79.322
            c0.348-10.013,1.461-19.828,4.444-28.964L428.37,144.819z M282.624,297.698c-9.712,6.967-21.063,11.566-33.495,14.169
            l-91.837-91.846c2.618-12.434,7.029-23.928,14.023-33.624L282.624,297.698z M40.995,324.536c9.132-2.973,18.941-4.081,28.962-4.434
            l79.296,79.296c-0.348,10.008-1.46,19.822-4.443,28.953L40.995,324.536z M159.668,309.599c-3.376-19.68-6.046-41.534-5.438-62.471
            l67.818,67.824C200.716,315.579,178.816,312.9,159.668,309.599z M298.023,282.93L186.379,171.296
            c9.122-6.6,20.379-11.178,33.685-13.961l91.982,91.971C309.428,261.741,305.017,273.233,298.023,282.93z M327.993,141.389
            c-1.04-5.398-2.081-10.626-3.056-15.462c-2.082-10.336-3.897-19.438-4.596-25.555l48.62,48.62
            c-6.12-0.699-15.219-2.514-25.565-4.596C338.673,143.439,333.275,142.408,327.993,141.389z"/>
    </g>
    <path id="Pin" d="M40.94,5.617C37.318,1.995,32.502,0,27.38,0c-5.123,0-9.938,1.995-13.56,5.617c-6.703,6.702-7.536,19.312-1.804,26.952
	L27.38,54.757L42.721,32.6C48.476,24.929,47.643,12.319,40.94,5.617z M27.557,26c-3.859,0-7-3.141-7-7s3.141-7,7-7s7,3.141,7,7
	S31.416,26,27.557,26z"/>
    <path fill="#000" id="Plus" d="M50 10 L50 90 M10 50 L90 50" />
    <path fill="transparent" id="Search" d="M12 26 C12 4 44 4 44 26 C44 48 12 48 12 26 M40 38 L54 54 Z" />
</svg>